<?xml version="1.0" encoding="utf-8"?>
<!-- Generator: Adobe Illustrator 27.9.3, SVG Export Plug-In . SVG Version: 9.03 Build 53313)  -->
<svg version="1.1" baseProfile="tiny" id="Layer_1" xmlns="http://www.w3.org/2000/svg" xmlns:xlink="http://www.w3.org/1999/xlink"
	 x="0px" y="0px" viewBox="0 0 384 512" overflow="visible" xml:space="preserve">
<path fill="#FFFFFF" d="M64,0C28.7,0,0,28.7,0,64v384c0,35.3,28.7,64,64,64h256c35.3,0,64-28.7,64-64V160H256c-17.7,0-32-14.3-32-32
	V0H64z M256,0v128h128L256,0z M112,256h160c8.8,0,16,7.2,16,16s-7.2,16-16,16H112c-8.8,0-16-7.2-16-16S103.2,256,112,256z M112,320
	h160c8.8,0,16,7.2,16,16s-7.2,16-16,16H112c-8.8,0-16-7.2-16-16S103.2,320,112,320z M112,384h160c8.8,0,16,7.2,16,16s-7.2,16-16,16
	H112c-8.8,0-16-7.2-16-16S103.2,384,112,384z"/>
</svg>
