<?xml version="1.0" encoding="UTF-8"?>
<svg id="Layer_1" data-name="Layer 1" xmlns="http://www.w3.org/2000/svg" version="1.1" viewBox="0 0 512 512">
  <defs>
    <style>
      .cls-1 {
        fill: #fff;
        stroke-width: 0px;
      }
    </style>
  </defs>
  <path class="cls-1" d="M0,73.1c0-20.2,16.3-36.6,36.6-36.6h438.9c20.2,0,36.6,16.3,36.6,36.6s-16.3,36.6-36.6,36.6H36.6C16.3,109.7,0,93.4,0,73.1ZM0,256c0-20.2,16.3-36.6,36.6-36.6h438.9c20.2,0,36.6,16.3,36.6,36.6s-16.3,36.6-36.6,36.6H36.6c-20.2,0-36.6-16.3-36.6-36.6ZM512,438.9c0,20.2-16.3,36.6-36.6,36.6H36.6c-20.2,0-36.6-16.3-36.6-36.6s16.3-36.6,36.6-36.6h438.9c20.2,0,36.6,16.3,36.6,36.6Z"/>
</svg>