<?xml version="1.0" encoding="UTF-8"?>
<svg id="Layer_1" data-name="Layer 1" xmlns="http://www.w3.org/2000/svg" version="1.1" viewBox="0 0 1548.8 1468.7">
  <defs>
    <style>
      .cls-1 {
        fill: #39a28f;
      }

      .cls-1, .cls-2 {
        stroke-width: 0px;
      }

      .cls-2 {
        fill: #fff;
      }

      .cls-3 {
        display: none;
      }
    </style>
  </defs>
  <g id="Layer_2" data-name="Layer 2" class="cls-3">
    <circle class="cls-1" cx="780" cy="728.7" r="640"/>
  </g>
  <g id="Layer_4" data-name="Layer 4">
    <path class="cls-2" d="M713.8,928.5c.8-47.9,6.5-85.7,17.1-113.5s32.1-58.6,64.5-92.4l82.9-81.5c35.4-38.2,53.2-79.2,53.2-123.1s-11.6-75.3-34.8-99.2-57-35.9-101.2-35.9-77.6,10.9-103.8,32.6-39.2,51-39.2,87.6h-117.1c.8-65.3,25.2-118,73.1-158.1s110.2-60.2,187-60.2,141.9,20.4,186.4,61.3c44.5,40.9,66.8,96.9,66.8,168.2s-34.2,139.9-102.5,208.3l-69,65.2c-30.8,32.6-46.2,79.5-46.2,140.7h-117.1ZM708.8,1120.5c0-18.3,5.8-33.6,17.4-46,11.6-12.4,28.8-18.6,51.6-18.6s40.1,6.2,51.9,18.6c11.8,12.4,17.7,27.7,17.7,46s-5.9,33.4-17.7,45.4-29.1,18-51.9,18-40-6-51.6-18-17.4-27.1-17.4-45.4Z"/>
  </g>
</svg>