<?xml version="1.0" encoding="UTF-8"?><svg xmlns="http://www.w3.org/2000/svg" viewBox="0 0 1548.85 1468.69"><defs><style>.cls-1,.cls-2{stroke-width:0px;}.cls-2{fill:#fff;}</style></defs><g id="Layer_2"><circle class="cls-1" cx="780" cy="728.69" r="640"/></g><g id="Layer_4"><path class="cls-2" d="m713.82,941.76c.84-47.89,6.53-85.72,17.08-113.5s32.06-58.56,64.55-92.38l82.91-81.52c35.44-38.2,53.16-79.23,53.16-123.08s-11.61-75.3-34.81-99.23-56.95-35.91-101.25-35.91-77.62,10.88-103.78,32.62-39.23,50.95-39.23,87.59h-117.06c.84-65.28,25.2-117.97,73.08-158.06s110.22-60.16,187-60.16,141.86,20.44,186.36,61.28c44.5,40.86,66.77,96.91,66.77,168.16s-34.17,139.88-102.52,208.3l-68.97,65.2c-30.81,32.61-46.2,79.5-46.2,140.67h-117.06Zm-5.06,192c0-18.28,5.8-33.61,17.39-46.02,11.59-12.39,28.8-18.59,51.58-18.59s40.08,6.2,51.89,18.59c11.81,12.41,17.72,27.73,17.72,46.02s-5.91,33.42-17.72,45.41-29.11,17.98-51.89,17.98-39.98-6-51.58-17.98-17.39-27.12-17.39-45.41Z"/></g></svg>